# Blender 4.1.1
# www.blender.org
mtllib HealTower.mtl
o Base
v 0.305050 0.408848 0.323396
v 0.305050 0.408848 -0.330856
v 0.448622 -0.003294 0.423912
v 0.448622 -0.003294 -0.431372
v 0.380483 0.192307 -0.383667
v 0.380483 0.192307 0.376207
v 0.365665 0.234845 -0.373293
v 0.365665 0.234845 0.365833
v -0.366062 0.234845 -0.366125
v -0.168719 0.398623 -0.151846
v -0.152093 0.270481 -0.252108
v -0.205216 0.088751 -0.369527
v -0.205722 0.395739 -0.188519
v -0.301991 0.335017 -0.223572
v -0.366062 0.234845 0.373001
v 0.340872 0.234845 0.360816
v 0.355057 0.192307 0.371049
v -0.341270 0.234845 -0.361108
v -0.355455 0.192307 -0.371342
v 0.355057 0.192307 -0.378506
v 0.340872 0.234845 -0.368273
v -0.341270 0.234845 0.367980
v -0.355455 0.192307 0.378214
v -0.380880 0.192307 -0.376500
v -0.380880 0.192307 0.383375
v -0.449019 -0.003294 0.431079
v -0.449019 -0.003294 -0.424204
v -0.305448 0.408848 0.330564
v -0.305448 0.408848 -0.323688
v 0.071643 0.408848 -0.209470
v -0.081182 0.408848 -0.209470
v -0.081182 0.408848 0.203157
v 0.071643 0.408848 0.203157
v 0.071643 0.883046 -0.209470
v -0.081182 0.883046 -0.209470
v -0.081182 0.883046 0.203157
v 0.071643 0.883046 0.203157
v 0.202021 0.408848 0.072905
v 0.202021 0.408848 -0.079920
v -0.210606 0.408848 -0.079920
v -0.210606 0.408848 0.072905
v 0.202021 0.883046 0.072905
v 0.202021 0.883046 -0.079920
v -0.210606 0.883046 -0.079920
v -0.210606 0.883046 0.072905
v -0.119388 0.903046 0.072905
v 0.109849 0.903046 0.072905
v -0.119388 0.903046 -0.079920
v 0.109849 0.903046 -0.079920
v 0.071643 0.903046 0.111111
v -0.081182 0.903046 0.111111
v 0.071643 0.903046 -0.118126
v -0.081182 0.903046 -0.118126
v -0.119388 0.883046 0.072905
v 0.109849 0.883046 0.072905
v -0.119388 0.883046 -0.079920
v 0.109849 0.883046 -0.079920
v 0.071643 0.883046 0.111111
v -0.081182 0.883046 0.111111
v 0.071643 0.883046 -0.118126
v -0.081182 0.883046 -0.118126
v 0.224468 0.903046 -0.079920
v 0.224468 0.903046 -0.232744
v -0.081182 0.903046 -0.232744
v -0.234007 0.903046 -0.232744
v -0.234007 0.903046 0.072905
v -0.234007 0.903046 0.225730
v 0.071643 0.903046 0.225730
v 0.224468 0.903046 0.225730
v 0.224468 0.903046 0.072905
v 0.071643 0.903046 -0.232744
v -0.234007 0.903046 -0.079920
v -0.081182 0.903046 0.225730
v 0.224468 0.408848 -0.079920
v 0.224468 0.408848 -0.232744
v -0.081182 0.408848 -0.232744
v -0.234007 0.408848 -0.232744
v -0.234007 0.408848 0.072905
v -0.234007 0.408848 0.225730
v 0.071643 0.408848 0.225730
v 0.224468 0.408848 0.225730
v 0.224468 0.408848 0.072905
v 0.071643 0.408848 -0.232744
v -0.234007 0.408848 -0.079920
v -0.081182 0.408848 0.225730
vn 0.9443 0.3290 -0.0000
vn -0.0084 0.2369 -0.9715
vn 0.0084 0.2369 0.9715
vn -0.0104 0.2369 -0.9715
vn 0.0104 0.2369 0.9715
vn -0.0000 1.0000 -0.0000
vn -0.0000 -1.0000 -0.0000
vn -0.9443 0.3290 -0.0000
vn 0.7071 -0.0000 -0.7071
vn -0.7071 -0.0000 0.7071
vn 0.7071 -0.0000 0.7071
vn -0.7071 -0.0000 -0.7071
vn -0.0000 -0.0000 -1.0000
vn -0.0000 -0.0000 1.0000
vn 1.0000 -0.0000 -0.0000
vn -1.0000 -0.0000 -0.0000
vt 0.000000 0.000000
s 0
g Base_Base
usemtl Base
f 5/1/1 6/1/1 3/1/1 4/1/1
f 24/1/2 5/1/2 4/1/2 27/1/2
f 6/1/3 25/1/3 26/1/3 3/1/3
f 2/1/1 1/1/1 8/1/1 7/1/1
f 29/1/4 2/1/4 7/1/4 9/1/4
f 1/1/5 28/1/5 15/1/5 8/1/5
f 6/1/6 5/1/6 20/1/6 17/1/6
f 15/1/7 9/1/7 18/1/7 22/1/7
f 7/1/7 8/1/7 16/1/7 21/1/7
f 9/1/7 7/1/7 21/1/7 18/1/7
f 25/1/6 6/1/6 17/1/6 23/1/6
f 5/1/6 24/1/6 19/1/6 20/1/6
f 24/1/6 25/1/6 23/1/6 19/1/6
f 28/1/8 29/1/8 9/1/8 15/1/8
f 8/1/7 15/1/7 22/1/7 16/1/7
f 25/1/8 24/1/8 27/1/8 26/1/8
f 29/1/6 77/1/6 76/1/6 83/1/6 75/1/6 2/1/6
f 1/1/6 81/1/6 80/1/6 85/1/6 79/1/6 28/1/6
f 28/1/6 79/1/6 78/1/6 84/1/6 77/1/6 29/1/6
f 1/1/6 2/1/6 75/1/6 74/1/6 82/1/6 81/1/6
f 3/1/7 26/1/7 27/1/7 4/1/7
f 65/1/6 72/1/6 48/1/6
f 85/1/6 80/1/6 33/1/6 32/1/6
f 83/1/6 76/1/6 31/1/6 30/1/6
f 84/1/6 78/1/6 41/1/6 40/1/6
f 82/1/6 74/1/6 39/1/6 38/1/6
f 63/1/6 52/1/6 49/1/6
f 50/1/6 69/1/6 47/1/6
f 46/1/6 66/1/6 67/1/6
f 46/1/9 51/1/9 59/1/9 54/1/9
f 49/1/10 52/1/10 60/1/10 57/1/10
f 53/1/11 48/1/11 56/1/11 61/1/11
f 50/1/12 47/1/12 55/1/12 58/1/12
f 46/1/13 54/1/13 45/1/13 66/1/13
f 48/1/14 72/1/14 44/1/14 56/1/14
f 64/1/15 53/1/15 61/1/15 35/1/15
f 34/1/16 60/1/16 52/1/16 71/1/16
f 62/1/14 49/1/14 57/1/14 43/1/14
f 42/1/13 55/1/13 47/1/13 70/1/13
f 50/1/16 58/1/16 37/1/16 68/1/16
f 51/1/15 73/1/15 36/1/15 59/1/15
f 34/1/16 71/1/16 83/1/16 30/1/16
f 83/1/13 71/1/13 63/1/13 75/1/13
f 75/1/15 63/1/15 62/1/15 74/1/15
f 39/1/14 74/1/14 62/1/14 43/1/14
f 44/1/14 72/1/14 84/1/14 40/1/14
f 41/1/13 78/1/13 66/1/13 45/1/13
f 36/1/15 73/1/15 85/1/15 32/1/15
f 31/1/15 76/1/15 64/1/15 35/1/15
f 77/1/13 65/1/13 64/1/13 76/1/13
f 84/1/16 72/1/16 65/1/16 77/1/16
f 79/1/16 67/1/16 66/1/16 78/1/16
f 85/1/14 73/1/14 67/1/14 79/1/14
f 33/1/16 80/1/16 68/1/16 37/1/16
f 42/1/13 70/1/13 82/1/13 38/1/13
f 82/1/15 70/1/15 69/1/15 81/1/15
f 81/1/14 69/1/14 68/1/14 80/1/14
f 48/1/6 53/1/6 65/1/6
f 53/1/6 64/1/6 65/1/6
f 49/1/6 62/1/6 63/1/6
f 63/1/6 71/1/6 52/1/6
f 68/1/6 69/1/6 50/1/6
f 69/1/6 70/1/6 47/1/6
f 67/1/6 73/1/6 51/1/6
f 51/1/6 46/1/6 67/1/6
o Base_Accents
v 0.341071 0.234845 0.360962
v 0.355256 0.192308 0.371196
v -0.341071 0.234845 -0.360962
v -0.355256 0.192308 -0.371196
v 0.355256 0.192308 -0.378360
v 0.341071 0.234845 -0.368127
v -0.341071 0.234845 0.368126
v -0.355256 0.192308 0.378360
v 0.071643 0.408848 -0.209470
v -0.081182 0.408848 -0.209470
v -0.081182 0.408848 0.203157
v 0.071643 0.408848 0.203157
v 0.071643 0.883046 -0.209470
v -0.081182 0.883046 -0.209470
v -0.081182 0.883046 0.203157
v 0.071643 0.883046 0.203157
v 0.202021 0.408848 0.072905
v 0.202021 0.408848 -0.079920
v -0.210606 0.408848 -0.079920
v -0.210606 0.408848 0.072905
v 0.202021 0.883046 0.072905
v 0.202021 0.883046 -0.079920
v -0.210606 0.883046 -0.079920
v -0.210606 0.883046 0.072905
v -0.119388 0.883046 0.072905
v 0.109849 0.883046 0.072905
v -0.119388 0.883046 -0.079920
v 0.109849 0.883046 -0.079920
v 0.071643 0.883046 0.111111
v -0.081182 0.883046 0.111111
v 0.071643 0.883046 -0.118126
v -0.081182 0.883046 -0.118126
v -0.004424 0.883045 -0.003253
vn 0.9486 0.3163 -0.0000
vn -0.9486 0.3163 -0.0000
vn 0.0100 0.2339 0.9722
vn -0.0100 0.2339 -0.9722
vn -0.0000 -0.0000 -1.0000
vn -0.0000 -0.0000 1.0000
vn 1.0000 -0.0000 -0.0000
vn -1.0000 -0.0000 -0.0000
vn -0.0000 1.0000 -0.0000
vt 0.000000 0.000000
s 0
g Base_Accents_Accent
usemtl Accent
f 91/2/17 86/2/17 87/2/17 90/2/17
f 92/2/18 88/2/18 89/2/18 93/2/18
f 87/2/19 86/2/19 92/2/19 93/2/19
f 89/2/20 88/2/20 91/2/20 90/2/20
f 94/2/21 95/2/21 99/2/21 98/2/21
f 96/2/22 97/2/22 101/2/22 100/2/22
f 102/2/23 103/2/23 107/2/23 106/2/23
f 104/2/24 105/2/24 109/2/24 108/2/24
f 98/2/25 99/2/25 118/2/25
f 99/2/25 117/2/25 118/2/25
f 117/2/25 112/2/25 118/2/25
f 112/2/25 108/2/25 118/2/25
f 108/2/25 109/2/25 118/2/25
f 109/2/25 110/2/25 118/2/25
f 110/2/25 115/2/25 118/2/25
f 115/2/25 100/2/25 118/2/25
f 100/2/25 101/2/25 118/2/25
f 101/2/25 114/2/25 118/2/25
f 114/2/25 111/2/25 118/2/25
f 111/2/25 106/2/25 118/2/25
f 106/2/25 107/2/25 118/2/25
f 107/2/25 113/2/25 118/2/25
f 113/2/25 116/2/25 118/2/25
f 116/2/25 98/2/25 118/2/25
